<svg width="165" height="171" viewBox="0 0 165 171" fill="none" xmlns="http://www.w3.org/2000/svg">
    <path fill-rule="evenodd" clip-rule="evenodd"
        d="M47.5315 78.6382C52.7892 101.174 72.0168 116.829 93.924 118.557C94.0857 114.188 93.5362 109.717 92.194 105.298C88.1217 91.892 77.723 82.1416 65.2323 78.3354L69.0216 65.9C85.4816 70.9156 99.2481 83.7927 104.633 101.52C106.615 108.047 107.289 114.659 106.804 121.075C109.935 119.739 113.381 119 117 119C131.359 119 143 130.641 143 145C143 159.359 131.359 171 117 171C105.672 171 96.036 163.755 92.4724 153.647C86.2763 160.263 78.3124 165.39 69.0162 168.214C40.7638 176.796 10.9038 160.85 2.32206 132.597C-5.54921 106.684 7.21407 79.4186 31.1814 68.4595C30.4069 37.4423 51.4288 9.08968 82.8328 1.76307C118.784 -6.62451 154.728 15.7205 163.116 51.6721C168.206 73.4894 161.971 95.304 148.274 110.942L136.99 101.058C147.639 88.9007 152.454 71.9915 148.508 55.0801C142.003 27.1962 114.125 9.86541 86.2408 16.3708C58.3569 22.8762 41.0261 50.7542 47.5315 78.6382ZM32.9541 82.1758C39.6016 110.42 63.258 130.227 90.5392 133.3C85.9561 143.745 77.008 152.2 65.2378 155.775C43.8552 162.27 21.2559 150.202 14.7609 128.819C9.21665 110.567 17.1988 91.428 32.9541 82.1758ZM130 145C130 152.18 124.18 158 117 158C109.82 158 104 152.18 104 145C104 137.82 109.82 132 117 132C124.18 132 130 137.82 130 145Z"
        fill="#fff" />
</svg>
    